<?xml version="1.0" standalone="no"?>
<!DOCTYPE svg PUBLIC "-//W3C//DTD SVG 20010904//EN"
 "http://www.w3.org/TR/2001/REC-SVG-20010904/DTD/svg10.dtd">
<svg version="1.0" xmlns="http://www.w3.org/2000/svg"
 width="299.000000pt" height="299.000000pt" viewBox="0 0 299.000000 299.000000"
 preserveAspectRatio="xMidYMid meet">
<metadata>
Created by potrace 1.11, written by Peter Selinger 2001-2013
</metadata>
<g transform="translate(0.000000,299.000000) scale(0.100000,-0.100000)"
fill="#000000" stroke="none">
<path d="M1345 2980 c-22 -4 -56 -11 -75 -14 -166 -26 -395 -166 -510 -311
-43 -54 -39 -69 28 -112 67 -43 81 -59 82 -94 0 -28 33 -63 93 -98 20 -13 37
-27 37 -32 0 -17 -52 -42 -95 -44 -48 -3 -197 24 -205 36 -3 4 -36 22 -74 40
-105 49 -186 40 -296 -35 -49 -33 -124 -105 -117 -112 3 -3 39 5 81 18 73 21
77 21 106 5 28 -17 31 -17 69 3 56 28 146 50 205 50 36 0 57 -6 80 -23 58 -44
123 -62 226 -62 83 0 102 3 145 26 88 45 119 139 74 223 -11 21 -17 42 -12 46
18 16 142 58 206 70 79 14 183 8 254 -16 70 -23 163 -66 163 -74 0 -4 -7 -14
-17 -21 -20 -17 -53 -89 -49 -109 10 -60 22 -83 57 -114 21 -20 43 -36 48 -36
5 0 16 -3 25 -6 9 -3 16 -2 16 3 0 5 -16 15 -35 22 -46 16 -83 67 -91 122 -5
39 -2 49 27 89 31 43 33 43 42 22 8 -17 6 -27 -7 -41 -20 -22 -24 -79 -7 -108
9 -16 10 -16 11 7 0 16 12 35 35 53 64 51 41 90 -90 152 -220 103 -326 106
-563 13 -148 -58 -171 -89 -106 -146 26 -24 34 -37 29 -52 -7 -23 10 -28 19
-4 10 26 7 53 -10 85 -17 33 -11 69 11 69 22 0 45 -54 45 -106 0 -81 -46 -131
-139 -148 -33 -6 -33 -5 -18 12 38 42 18 81 -73 138 -77 48 -89 62 -80 93 4
16 13 39 19 52 12 23 11 23 -3 5 -9 -11 -16 -24 -16 -30 0 -5 -12 2 -28 16
-15 13 -42 35 -60 47 -56 39 -57 53 -11 111 99 126 343 266 499 287 19 3 54 8
77 13 42 7 165 5 256 -5 99 -10 322 -105 455 -192 77 -51 164 -142 160 -167
-2 -14 -23 -31 -60 -51 -63 -34 -97 -65 -103 -95 -8 -40 -27 -60 -86 -86 -92
-41 -122 -97 -83 -152 12 -17 12 -22 2 -23 -7 -1 2 -4 19 -9 71 -16 135 -1
235 57 47 27 68 33 131 36 76 4 147 -11 178 -39 18 -16 120 -19 135 -4 7 7 33
3 82 -13 81 -26 88 -21 45 35 -56 73 -159 121 -254 119 -52 -1 -96 -15 -194
-62 -65 -31 -77 -34 -167 -34 -82 0 -101 3 -124 21 -15 11 -29 25 -31 30 -2 6
20 21 49 35 46 21 57 32 82 81 25 52 34 60 91 87 92 44 97 69 28 142 -57 61
-142 122 -253 182 -91 49 -216 102 -265 112 -122 24 -273 31 -350 15z m-815
-650 c11 -6 30 -9 43 -6 28 5 121 -13 112 -22 -3 -3 -18 -7 -33 -8 -73 -6
-135 -21 -185 -46 -35 -17 -39 -17 -63 -2 -26 18 -42 15 -154 -24 -22 -7 50
66 87 89 54 34 148 43 193 19z m2116 -16 c39 -22 99 -82 91 -90 -1 -2 -30 5
-63 15 -52 15 -63 16 -79 5 -25 -18 -79 -12 -140 16 -29 14 -79 26 -120 29
l-70 6 47 13 c26 6 65 12 86 12 22 0 54 6 72 14 45 19 126 10 176 -20z m-692
-9 c10 -26 76 -47 149 -48 l69 -1 -46 -23 c-54 -27 -96 -31 -149 -14 -42 14
-61 42 -53 77 7 27 21 31 30 9z m-931 -23 c-11 -30 -44 -60 -74 -66 -35 -7
-108 8 -156 31 -46 21 -41 32 10 22 96 -19 207 -2 207 32 0 6 4 8 10 4 5 -3 6
-13 3 -23z"/>
<path d="M1308 2849 c-7 -5 -10 -9 -6 -9 4 0 1 -15 -7 -32 -29 -71 -27 -100
11 -161 42 -68 61 -75 28 -12 -12 25 -21 58 -19 73 2 15 4 39 4 53 1 28 47 82
62 73 18 -11 8 -34 -16 -40 -33 -8 -32 -20 3 -19 24 0 27 -4 27 -32 0 -31 2
-33 33 -33 31 0 32 1 17 17 -13 12 -16 30 -13 75 l3 59 -57 -2 c-31 -1 -63 -6
-70 -10z"/>
<path d="M1514 2853 c16 -4 18 -12 13 -62 -3 -31 -9 -64 -12 -74 -6 -14 -1
-17 26 -17 21 0 29 4 24 9 -6 6 -8 37 -7 71 l4 61 36 -7 c40 -7 67 -24 40 -24
-33 0 -29 -22 11 -66 47 -51 61 -80 61 -132 0 -27 3 -33 10 -22 15 24 2 99
-25 146 -14 24 -30 44 -35 44 -21 0 -9 18 15 24 14 4 23 11 19 17 -10 17 -46
27 -124 32 -41 3 -67 3 -56 0z"/>
<path d="M1144 2794 c-36 -17 -70 -47 -76 -65 -3 -9 -9 -9 -23 -1 -15 8 -29 5
-65 -15 -51 -30 -87 -60 -58 -50 13 5 24 -7 47 -49 16 -29 25 -57 20 -60 -5
-3 -9 -10 -9 -15 0 -6 14 -2 30 8 30 17 39 33 20 33 -15 0 -61 98 -50 105 19
12 68 -6 96 -33 37 -37 53 -79 47 -126 -4 -34 -2 -39 9 -28 8 8 13 36 13 71 0
47 -5 64 -26 92 -25 32 -25 35 -11 66 24 50 39 49 67 -8 13 -28 21 -57 19 -64
-5 -12 0 -12 25 -2 31 11 42 27 19 27 -16 0 -61 98 -54 117 7 17 -2 16 -40 -3z"/>
<path d="M1860 2757 c-27 -8 -30 -11 -15 -14 46 -9 48 -12 19 -46 -34 -41 -63
-104 -64 -139 0 -42 17 -42 24 0 6 43 41 94 86 127 38 28 50 25 74 -16 24 -41
31 -31 11 17 -21 53 -84 86 -135 71z"/>
<path d="M473 2542 c-22 -14 -21 -117 1 -125 39 -15 69 70 39 112 -15 23 -22
25 -40 13z m37 -56 c0 -37 -29 -73 -32 -40 0 11 -2 26 -3 34 -2 22 15 51 26
45 5 -4 9 -21 9 -39z"/>
<path d="M353 2518 c-19 -25 -24 -38 -14 -38 6 0 11 6 11 14 0 20 30 29 36 11
3 -8 -3 -27 -14 -42 -19 -27 -26 -51 -23 -83 1 -12 3 -12 12 2 5 10 16 15 24
11 16 -6 45 13 45 29 0 5 -7 3 -15 -6 -9 -8 -22 -13 -30 -10 -19 8 -19 8 8 55
22 39 22 40 3 54 -24 18 -31 19 -43 3z"/>
<path d="M2070 2511 c0 -6 4 -13 10 -16 6 -3 7 1 4 9 -7 18 -14 21 -14 7z"/>
<path d="M2495 2512 c-5 -4 -17 -16 -25 -27 -14 -19 -14 -19 2 -6 17 12 17 11
12 -20 -4 -19 -14 -40 -22 -46 -9 -7 -12 -13 -6 -14 5 0 19 -2 31 -5 12 -2 25
1 28 6 3 6 1 10 -5 10 -10 0 -10 7 6 78 6 31 -1 39 -21 24z"/>
<path d="M2556 2497 c-8 -32 -8 -34 14 -40 11 -3 20 -12 20 -21 0 -22 -30 -32
-42 -15 -7 11 -8 9 -6 -6 4 -23 33 -32 53 -15 22 19 19 61 -5 67 -28 7 -25 23
4 23 14 0 28 5 32 11 4 7 1 10 -7 7 -8 -3 -24 -2 -35 3 -18 6 -23 3 -28 -14z"/>
<path d="M1444 2443 c-16 -32 -60 -117 -97 -190 -73 -143 -65 -135 -167 -148
-25 -3 -61 -7 -80 -10 -19 -3 -55 -7 -80 -10 -76 -10 -253 -58 -455 -122 -198
-63 -385 -182 -385 -245 0 -18 23 -49 87 -114 47 -49 93 -105 101 -124 9 -21
15 -70 16 -124 1 -85 3 -89 32 -115 18 -16 79 -45 148 -69 64 -23 138 -54 164
-68 71 -40 184 -120 217 -154 l28 -29 -27 -11 c-66 -25 -129 0 -269 107 -33
24 -61 42 -64 40 -6 -7 98 -85 176 -133 52 -32 74 -39 115 -39 63 0 77 -9 72
-42 -10 -51 -75 -97 -127 -89 -54 8 -118 56 -255 189 -75 73 -141 133 -147
135 -7 2 54 -62 136 -142 126 -125 158 -151 225 -183 64 -31 89 -38 151 -40
40 -1 74 -4 75 -5 1 -2 52 -82 113 -178 253 -400 335 -525 341 -520 9 6 36 46
107 160 118 190 321 504 343 530 2 3 25 5 51 6 140 4 258 68 411 224 119 121
191 177 236 186 24 4 32 9 23 15 -15 9 -60 2 -106 -18 -36 -15 -124 -83 -196
-152 l-49 -46 67 99 c36 54 64 101 60 104 -10 10 -66 -52 -60 -67 3 -9 3 -12
-1 -9 -4 4 -32 -15 -63 -43 -105 -94 -261 -147 -304 -104 -26 25 -21 38 33 89
53 49 146 98 310 161 144 56 175 72 210 107 29 29 31 35 25 72 -4 23 -7 54 -6
70 2 39 76 150 145 216 60 58 86 96 86 128 0 52 -207 170 -405 231 -182 56
-524 130 -623 135 -51 3 -96 7 -100 10 -4 2 -50 90 -102 195 -52 105 -98 191
-101 191 -3 0 -19 -26 -35 -57z m113 -172 c37 -23 46 -39 187 -315 110 -215
115 -236 64 -236 -19 0 -19 1 1 26 26 33 17 51 -11 24 -12 -11 -28 -20 -35
-20 -18 0 -16 45 3 64 14 15 13 20 -2 14 -4 -2 -12 8 -17 22 -11 24 -11 23
-15 -15 -2 -27 -10 -45 -22 -53 -17 -10 -20 -9 -21 5 -2 29 2 46 17 77 18 37
18 41 -1 26 -12 -10 -17 -7 -26 16 l-12 29 -15 -47 c-9 -27 -19 -48 -23 -48
-8 0 -4 48 6 80 4 14 1 16 -20 12 -15 -2 -25 0 -25 7 0 7 -4 10 -9 7 -5 -4
-12 0 -14 6 -4 10 -8 9 -16 -2 -9 -12 -11 -12 -16 3 -6 13 -11 14 -26 6 -15
-7 -21 -6 -25 5 -5 12 -9 13 -25 3 -16 -10 -21 -9 -29 3 -5 8 -10 10 -10 5 0
-6 -9 -11 -20 -12 -14 -1 -20 5 -21 20 l0 22 -9 -22 c-5 -13 -14 -23 -20 -23
-5 0 -10 10 -11 23 l0 22 -9 -22 c-5 -13 -12 -23 -15 -23 -4 0 -3 5 1 11 3 6
-5 4 -19 -6 -24 -15 -26 -15 -36 2 -10 17 -10 17 -11 1 0 -23 -17 -23 -22 -1
-5 26 108 238 147 275 55 51 126 63 182 29z m-399 -388 c-61 -120 -112 -220
-114 -222 -10 -11 -27 63 -30 128 -4 92 10 126 56 129 18 1 39 -3 48 -10 13
-11 14 -10 10 2 -2 8 -19 23 -36 33 -31 18 -35 18 -102 2 -50 -12 -73 -23 -84
-41 -23 -34 -20 -38 10 -15 15 12 30 21 34 21 5 0 6 -29 4 -64 -4 -76 6 -117
45 -177 l28 -45 -34 -64 c-18 -35 -36 -66 -38 -68 -3 -3 -26 -9 -52 -13 -27
-4 -59 -11 -73 -14 -14 -3 -35 -7 -47 -9 -100 -19 -186 -67 -204 -113 -12 -33
-3 -48 50 -77 66 -36 88 -34 50 3 -68 68 -17 153 105 175 35 7 38 6 30 -11
-14 -31 -6 -82 17 -114 l22 -31 -44 -89 c-24 -49 -48 -87 -54 -85 -50 23 -163
67 -223 86 -40 14 -85 34 -100 46 -25 20 -27 27 -28 109 -3 122 -19 156 -114
249 -89 88 -99 115 -56 157 105 104 555 270 856 314 25 4 65 11 90 15 99 17
100 32 -22 -207z m727 192 c125 -23 443 -103 538 -136 49 -16 130 -50 180 -75
215 -108 223 -132 95 -259 -33 -33 -77 -84 -97 -114 -34 -51 -36 -59 -36 -136
0 -95 -5 -103 -78 -138 -50 -24 -248 -102 -275 -109 -12 -3 -101 142 -102 164
0 3 12 20 26 38 30 35 42 94 23 116 -11 13 -9 14 17 8 92 -22 129 -39 138 -67
9 -25 5 -32 -43 -81 l-53 -53 82 27 c96 34 112 45 108 79 -4 33 -79 72 -203
103 -49 12 -92 23 -95 24 -3 0 -29 4 -57 9 l-53 8 -46 90 c-42 81 -45 94 -39
135 7 47 59 161 79 174 6 4 31 -4 55 -18 24 -13 46 -23 47 -21 2 2 -11 18 -29
35 -26 25 -49 35 -96 44 -59 11 -65 10 -107 -12 -55 -30 -59 -48 -5 -20 50 25
77 19 57 -13 -8 -12 -21 -46 -31 -75 -9 -29 -18 -52 -20 -50 -2 2 -38 71 -80
153 -43 83 -82 154 -86 160 -21 23 -5 28 74 22 45 -4 96 -9 112 -12z m-498
-147 c-3 -8 -6 -5 -6 6 -1 11 2 17 5 13 3 -3 4 -12 1 -19z m32 -10 c0 -27 -2
-29 -8 -13 -5 11 -6 26 -4 33 8 21 13 13 12 -20z m-119 -15 c0 -41 -9 -41 -12
0 -3 31 -14 36 -21 10 -4 -14 -5 -12 -6 5 -1 16 5 22 19 22 16 0 20 -7 20 -37z
m30 5 c0 -36 -4 -35 -14 5 -4 16 -2 27 4 27 5 0 10 -14 10 -32z m30 -5 c0 -43
-6 -41 -13 5 -3 17 -1 32 4 32 5 0 9 -16 9 -37z m87 -2 c-1 -21 -5 -37 -9 -34
-11 6 -10 73 1 73 5 0 9 -18 8 -39z m35 10 c-19 -34 -27 -33 -18 4 4 14 13 25
21 25 12 0 11 -5 -3 -29z m-235 -11 c-2 -23 -10 -17 -14 11 -2 11 1 18 6 14 6
-3 9 -14 8 -25z m264 7 c-10 -9 -11 -8 -5 6 3 10 9 15 12 12 3 -3 0 -11 -7
-18z m50 -18 c-6 -16 -10 -18 -10 -7 -1 22 12 55 16 42 2 -6 -1 -22 -6 -35z
m-341 -6 c0 -32 -7 -27 -14 10 -3 16 -1 25 5 22 5 -4 9 -18 9 -32z m382 14
c-6 -7 -12 -21 -15 -32 -3 -14 -5 -10 -6 11 -1 33 6 47 21 38 5 -4 5 -10 0
-17z m-74 -182 c46 -7 126 -70 118 -91 -3 -8 0 -14 7 -14 7 0 3 -7 -7 -15 -17
-13 -18 -15 -3 -15 9 0 17 -5 17 -11 0 -5 -4 -7 -10 -4 -5 3 -10 1 -10 -4 0
-6 4 -11 10 -11 5 0 7 -7 4 -15 -4 -8 -13 -15 -21 -15 -12 0 -13 -3 -4 -14 9
-10 8 -16 -4 -26 -13 -11 -21 -10 -45 9 -40 29 -39 9 1 -22 27 -21 29 -25 14
-37 -14 -11 -20 -9 -46 21 -31 35 -33 33 -10 -14 17 -33 12 -39 -33 -42 -26
-3 -36 2 -44 18 l-11 22 0 -22 c-1 -18 -6 -22 -31 -20 -34 2 -34 1 -19 30 11
21 10 21 -15 -2 -23 -22 -28 -23 -51 -11 -29 16 -32 35 -7 49 9 6 13 10 7 11
-5 0 -16 -4 -24 -9 -9 -6 -19 -5 -27 2 -10 10 -9 16 4 31 16 17 16 18 -3 15
-14 -3 -21 2 -23 19 -2 15 2 22 13 22 9 0 13 5 10 10 -4 6 -10 8 -15 5 -5 -3
-11 -1 -15 5 -3 5 2 10 12 11 10 0 13 3 6 6 -17 6 -16 28 3 69 11 24 27 37 57
48 69 25 103 27 195 11z m342 -9 c0 -16 -37 -32 -48 -21 -7 7 25 35 40 35 4 0
8 -6 8 -14z m-627 -28 c-4 -13 -8 -59 -8 -104 0 -71 3 -85 28 -122 l27 -42
-67 25 c-38 14 -93 41 -125 60 -47 30 -60 34 -82 25 -31 -11 -31 -11 -10 33
l16 34 41 -44 c22 -24 42 -41 45 -38 3 2 -12 23 -32 45 -20 22 -36 49 -36 60
0 11 1 20 3 20 1 0 38 16 82 35 44 19 90 35 103 35 20 0 22 -3 15 -22z m660
-33 c19 -41 16 -43 -23 -13 -23 16 -27 25 -19 35 17 20 24 16 42 -22z m-148
-15 c24 -17 51 -40 60 -52 19 -28 19 -82 0 -98 -8 -7 -15 -19 -15 -26 0 -12 4
-12 20 -2 22 14 43 58 38 80 -2 7 2 14 7 15 18 2 80 -35 106 -64 33 -35 109
-182 109 -210 0 -23 -41 -87 -73 -115 -59 -51 -59 -51 -396 -48 -626 3 -628 4
-658 27 -33 23 -62 70 -69 108 -4 25 12 95 22 95 2 0 41 -11 86 -24 46 -13
110 -27 143 -31 65 -8 73 1 10 11 -56 9 -165 43 -192 61 -28 19 -29 42 -3 86
19 32 24 34 58 30 20 -3 91 -27 157 -53 136 -54 150 -57 295 -65 151 -8 182
-13 215 -35 17 -11 41 -20 55 -20 23 1 24 2 8 14 -22 16 -23 26 -3 26 9 0 20
-10 25 -22 8 -22 9 -22 9 4 1 32 16 45 26 20 6 -15 8 -14 16 6 7 18 14 22 29
17 12 -4 20 -2 20 5 0 21 -29 21 -100 1 -63 -17 -74 -18 -103 -6 -27 12 -30
20 -4 16 4 0 7 4 7 9 0 6 -10 8 -22 5 -83 -18 -83 -18 -30 35 55 54 89 130 91
208 1 28 4 28 56 -8z m-847 -238 c-23 -45 -47 -81 -53 -79 -5 2 -16 20 -23 41
-10 32 -10 43 4 72 9 19 17 34 18 34 0 1 19 3 41 6 22 4 42 8 44 10 16 15 5
-14 -31 -84z m1212 48 c30 -16 36 -58 14 -99 -10 -19 -24 -36 -29 -38 -9 -3
-85 135 -85 153 0 9 77 -4 100 -16z m450 -338 c-44 -31 -105 -87 -176 -161
-123 -131 -215 -182 -298 -167 -39 8 -86 50 -86 79 0 16 5 18 27 14 36 -7 140
21 188 51 22 14 65 45 95 71 l55 46 -27 -38 c-16 -20 -40 -53 -54 -72 -15 -20
-24 -38 -21 -41 7 -8 37 13 95 67 67 63 141 123 182 148 42 25 55 27 20 3z
m-1547 -34 c74 -99 96 -199 61 -273 -21 -45 -48 -64 -101 -69 -54 -5 -75 8
-34 22 76 27 102 95 60 156 -24 34 -128 126 -191 169 l-41 27 111 0 111 0 24
-32z m927 25 c0 -2 -16 -24 -36 -50 -50 -65 -74 -120 -74 -170 l0 -43 -101 0
c-91 0 -99 1 -85 16 36 36 1 107 -64 129 l-33 11 49 34 c27 18 55 33 62 33 6
0 12 4 12 9 0 4 -18 8 -40 8 -22 0 -40 -5 -40 -11 0 -5 5 -7 11 -3 7 4 10 2 8
-5 -2 -6 -24 -23 -47 -37 l-43 -26 3 34 c2 20 8 32 16 30 6 -1 12 3 12 9 0 6
-17 9 -42 7 -27 -2 -42 -8 -41 -15 2 -7 -4 -10 -13 -6 -13 5 -15 2 -9 -18 7
-21 6 -22 -9 -10 -9 7 -16 22 -16 32 0 17 -8 19 -65 19 -59 0 -80 -9 -56 -24
10 -6 7 -118 -3 -135 -10 -16 16 -23 45 -12 13 5 18 10 12 10 -9 1 -13 21 -13
66 0 36 2 65 5 65 4 0 20 -7 36 -16 35 -18 59 -67 59 -122 0 -71 -6 -73 -175
-70 l-150 3 -12 67 c-13 71 -42 139 -76 176 l-21 23 467 -3 c257 -2 467 -4
467 -5z m183 -2 l42 -1 -55 -31 c-103 -56 -170 -140 -170 -212 0 -42 68 -107
113 -108 30 -1 31 -1 7 -9 -71 -23 -156 -4 -191 42 -19 27 -24 44 -23 93 1 67
14 98 73 173 41 52 56 58 124 56 20 -1 56 -2 80 -3z m-635 -126 l-4 -65 28 0
c15 0 28 5 28 11 0 5 -4 7 -10 4 -6 -4 -10 5 -10 19 0 30 15 33 64 12 41 -17
52 -46 34 -83 -13 -27 -17 -28 -96 -31 -79 -3 -83 -2 -73 16 14 26 23 78 23
135 1 26 5 47 10 47 6 0 9 -26 6 -65z m-284 -174 c-22 -33 -40 -51 -51 -51 -7
0 -53 64 -53 74 0 2 27 4 60 4 l61 0 -17 -27z m160 18 c3 -3 -13 -23 -35 -45
-37 -36 -44 -39 -100 -39 -32 0 -59 2 -59 6 0 3 13 18 29 33 l30 29 30 -34
c37 -40 41 -28 7 22 l-24 35 58 -1 c32 0 61 -3 64 -6z m166 -2 c0 -5 -11 -23
-25 -39 -14 -17 -24 -33 -21 -36 3 -2 17 10 31 27 15 17 31 31 37 31 5 0 21
-14 35 -30 35 -42 42 -29 9 15 -15 19 -26 36 -24 36 10 5 108 4 108 0 0 -3 -9
-21 -21 -40 -11 -18 -18 -36 -15 -38 3 -3 11 6 17 20 19 41 39 42 78 3 l35
-35 -149 0 -148 0 -29 31 c-55 59 -54 64 18 63 35 0 64 -4 64 -8z m298 4 c2
-1 -6 -17 -18 -37 -12 -19 -20 -37 -18 -40 3 -2 11 7 18 21 17 32 25 31 62 -5
l30 -30 -55 0 c-51 0 -57 3 -91 40 -20 22 -36 44 -36 48 0 6 82 8 108 3z
m-711 -48 c13 -14 23 -29 23 -33 0 -4 -22 -7 -50 -6 -27 0 -50 4 -50 8 0 4 4
8 8 8 5 0 15 11 22 25 17 31 19 31 47 -2z m302 -4 c13 -17 21 -33 18 -35 -3
-3 -33 -4 -68 -2 l-64 3 35 33 c19 17 39 32 45 32 6 0 21 -14 34 -31z m-337
-66 c9 -2 20 2 23 7 11 17 25 11 36 -16 13 -35 6 -39 -25 -18 -48 31 -36 9 21
-37 52 -42 63 -60 180 -290 68 -134 121 -233 117 -220 -3 14 -22 54 -40 90
-36 70 -41 86 -23 75 7 -4 9 0 5 12 -3 11 -14 52 -25 91 -14 51 -31 86 -57
118 -21 25 -42 45 -46 45 -5 0 19 -54 52 -121 34 -66 59 -126 57 -132 -2 -7
-13 8 -25 33 -11 25 -54 115 -96 200 -41 85 -74 156 -72 157 1 1 42 -46 91
-105 l89 -107 37 -130 c21 -71 46 -156 57 -187 11 -32 15 -58 9 -58 -5 0 -3
-8 4 -17 9 -11 10 -14 2 -9 -7 4 -34 39 -59 79 -45 68 -330 516 -349 546 -6
11 -5 12 6 5 8 -4 22 -10 31 -11z m154 -13 c12 0 28 7 35 16 12 14 14 14 20
-3 4 -10 8 -37 8 -59 1 -61 -20 -63 -65 -6 -21 26 -45 56 -53 66 -16 19 -15
19 9 3 13 -9 34 -17 46 -17z m626 14 c43 4 46 13 -34 -112 -29 -45 -114 -178
-188 -296 -74 -118 -136 -213 -138 -211 -4 3 26 70 100 225 36 74 79 167 97
205 28 61 40 76 101 120 79 58 92 79 23 41 -25 -15 -48 -24 -50 -22 -3 2 3 18
12 36 12 23 20 29 28 21 7 -5 29 -8 49 -7z m-499 -19 c25 -4 44 -1 59 9 38 27
40 18 8 -28 -50 -74 -82 -71 -116 9 -13 31 -13 37 -2 27 8 -6 31 -14 51 -17z
m161 -83 c38 -84 45 -110 40 -138 -3 -19 -10 -34 -14 -34 -5 0 -5 13 0 30 7
24 3 41 -22 90 -32 66 -41 69 -40 18 3 -344 3 -344 17 -308 18 47 17 31 -4
-68 -13 -62 -20 -80 -27 -70 -13 16 -53 139 -89 271 l-26 98 42 87 c39 77 71
133 76 129 0 -1 22 -48 47 -105z m6 91 c31 -15 36 -15 63 1 16 9 31 15 33 14
1 -2 -8 -23 -20 -48 -33 -65 -58 -65 -91 -1 -14 28 -24 51 -22 51 2 0 19 -7
37 -17z m149 5 c15 -9 25 -9 45 0 14 6 26 9 26 7 0 -15 -85 -95 -101 -95 -20
0 -22 7 -19 55 3 48 14 55 49 33z m88 -5 c-3 -5 -34 -71 -70 -148 -163 -350
-213 -449 -187 -367 4 15 23 90 40 167 18 77 38 149 45 160 7 11 36 45 65 75
28 30 63 70 77 88 22 28 42 45 30 25z m-225 -315 c-6 -6 -7 0 -4 19 5 21 7 23
10 9 2 -10 0 -22 -6 -28z m-9 -58 c-3 -12 -8 -19 -11 -16 -5 6 5 36 12 36 2 0
2 -9 -1 -20z"/>
<path d="M819 1885 c-3 -2 -21 -6 -39 -9 -71 -9 -131 -29 -126 -41 2 -7 0 -17
-6 -23 -17 -17 -20 -158 -4 -195 13 -31 78 -107 91 -107 4 0 -2 12 -13 28 -47
65 -51 183 -8 256 33 57 52 64 60 23 7 -32 -4 -47 -36 -47 -9 0 -20 -5 -24
-11 -5 -8 5 -9 33 -4 l40 6 11 -42 c6 -23 8 -47 5 -55 -4 -10 3 -11 34 -2 48
13 58 19 45 27 -16 10 -54 151 -48 177 6 21 -3 32 -15 19z"/>
<path d="M445 1763 c-33 -15 -61 -27 -62 -28 -1 -1 -10 -19 -19 -41 l-16 -39
25 28 c25 26 46 35 48 20 2 -21 9 -47 24 -94 20 -60 91 -137 143 -156 37 -13
44 -2 8 15 -59 27 -116 147 -109 230 4 55 14 64 71 60 50 -4 55 6 11 21 -45
16 -56 14 -124 -16z"/>
<path d="M2137 1824 c3 -9 -4 -24 -16 -36 -26 -24 -41 -59 -41 -98 0 -45 62
-93 136 -104 52 -8 114 43 114 95 0 15 5 29 10 31 35 11 -110 108 -162 108 -9
0 -20 5 -23 10 -10 16 -25 12 -18 -6z m136 -87 c23 -29 18 -60 -14 -100 -59
-76 -158 22 -103 101 33 47 82 47 117 -1z"/>
<path d="M2441 1742 c-1 -15 -12 -29 -31 -40 -17 -9 -40 -36 -51 -59 -20 -42
-20 -44 -2 -80 26 -53 62 -76 118 -75 53 1 102 31 111 68 3 13 13 24 20 24 30
0 -15 57 -85 109 -38 29 -72 57 -75 64 -2 7 -5 2 -5 -11z m89 -92 c28 -28 26
-75 -5 -105 -28 -29 -51 -31 -82 -10 -29 20 -37 59 -18 94 23 45 71 55 105 21z"/>
<path d="M1493 1680 c6 -25 -17 -50 -47 -50 -27 0 -46 18 -46 42 0 10 -5 17
-12 16 -21 -5 -36 -22 -30 -37 4 -11 -1 -12 -22 -7 -18 4 -25 3 -21 -4 3 -5
13 -10 21 -10 8 0 12 -4 9 -10 -3 -5 -1 -10 4 -10 6 0 11 -4 11 -10 0 -5 -7
-10 -16 -10 -8 0 -13 -4 -9 -10 3 -5 13 -7 23 -4 16 5 16 5 0 -9 -24 -19 -23
-30 0 -18 27 15 45 -5 30 -33 -10 -19 -10 -20 6 -6 31 25 49 22 42 -8 -6 -24
-5 -25 6 -7 18 32 32 36 42 12 l9 -22 4 23 c3 12 11 22 19 22 8 0 14 5 14 11
0 8 6 7 17 -2 15 -12 16 -12 10 5 -6 14 -4 17 9 12 12 -4 15 -2 10 9 -3 8 0
15 7 15 8 0 6 4 -3 10 -12 8 -12 10 -1 10 11 0 11 3 1 15 -7 8 -10 23 -7 34 3
14 -4 23 -30 35 -45 21 -56 20 -50 -4z"/>
<path d="M1015 1540 c3 -5 8 -10 11 -10 2 0 4 5 4 10 0 6 -5 10 -11 10 -5 0
-7 -4 -4 -10z"/>
<path d="M1964 1453 c-8 -12 -35 -18 -110 -24 -54 -4 -113 -12 -131 -17 -17
-6 -34 -8 -36 -5 -3 2 -8 -1 -12 -7 -7 -12 48 -5 93 11 13 5 56 9 97 9 57 0
78 4 96 19 13 11 22 22 19 25 -3 3 -10 -2 -16 -11z"/>
<path d="M1069 1438 c-4 -14 -7 -60 -3 -50 9 20 34 15 27 -5 -6 -16 -5 -16 10
-4 18 15 22 8 17 -34 -2 -17 0 -17 15 -5 9 8 26 15 37 17 17 3 19 -1 14 -24
-6 -28 -6 -28 10 -6 18 25 46 21 37 -5 -5 -14 -3 -15 8 -4 20 19 31 14 24 -10
l-6 -23 17 23 c19 26 36 29 27 5 -5 -12 -3 -14 8 -8 7 5 22 10 32 10 16 2 18
-3 13 -27 -3 -18 -2 -27 4 -23 6 3 10 12 10 20 0 20 21 30 31 14 5 -8 9 -9 9
-4 0 6 11 11 25 11 14 1 25 -3 25 -8 0 -7 4 -7 13 -1 6 5 39 9 73 9 38 -1 65
3 73 11 9 11 0 13 -51 14 -70 1 -105 4 -223 20 -99 13 -156 29 -223 63 -29 15
-52 25 -53 24z"/>
<path d="M1935 1369 c-11 -17 -118 -66 -187 -84 -66 -17 -138 -17 -233 1 -20
3 -27 2 -20 -5 14 -14 96 -25 185 -26 69 0 83 4 174 48 60 28 107 45 118 41
27 -8 22 11 -7 24 -16 7 -26 8 -30 1z"/>
<path d="M1235 975 l0 -95 29 0 c21 0 26 3 19 13 -15 17 -17 157 -3 157 6 0 8
5 5 10 -3 6 -16 10 -28 10 -21 0 -22 -4 -22 -95z"/>
<path d="M1130 605 c0 -9 170 -265 176 -265 3 0 -22 53 -56 118 -43 84 -69
123 -90 136 -17 9 -30 14 -30 11z"/>
<path d="M1788 588 c-25 -15 -43 -36 -57 -67 -11 -25 -36 -81 -55 -123 -20
-43 -32 -78 -28 -78 9 0 185 280 180 285 -2 2 -20 -6 -40 -17z"/>
<path d="M1475 670 c-3 -5 -1 -10 4 -10 6 0 11 5 11 10 0 6 -2 10 -4 10 -3 0
-8 -4 -11 -10z"/>
<path d="M1470 639 c0 -5 5 -7 10 -4 6 3 10 8 10 11 0 2 -4 4 -10 4 -5 0 -10
-5 -10 -11z"/>
<path d="M1422 535 c-31 -64 -33 -72 -22 -115 15 -63 60 -210 65 -210 2 0 2
48 2 107 -2 82 1 107 11 106 6 -2 12 2 12 8 0 6 -7 9 -15 6 -12 -5 -15 9 -17
81 l-3 87 -33 -70z"/>
<path d="M1473 585 c0 -8 4 -12 9 -9 4 3 8 9 8 15 0 5 -4 9 -8 9 -5 0 -9 -7
-9 -15z"/>
<path d="M1473 545 c0 -8 4 -15 9 -15 4 0 8 7 8 15 0 8 -4 15 -8 15 -5 0 -9
-7 -9 -15z"/>
<path d="M1474 491 c1 -16 3 -32 6 -35 3 -3 5 8 5 24 0 16 -3 31 -6 34 -3 3
-5 -7 -5 -23z"/>
<path d="M1477 403 c-10 -9 -9 -23 1 -23 5 0 9 7 9 15 0 17 -1 18 -10 8z"/>
<path d="M1475 340 c-3 -5 -1 -10 4 -10 6 0 11 5 11 10 0 6 -2 10 -4 10 -3 0
-8 -4 -11 -10z"/>
<path d="M1476 305 c4 -8 8 -15 10 -15 2 0 4 7 4 15 0 8 -4 15 -10 15 -5 0 -7
-7 -4 -15z"/>
<path d="M1481 264 c0 -11 3 -14 6 -6 3 7 2 16 -1 19 -3 4 -6 -2 -5 -13z"/>
<path d="M1481 224 c0 -11 3 -14 6 -6 3 7 2 16 -1 19 -3 4 -6 -2 -5 -13z"/>
<path d="M1482 180 c0 -14 2 -19 5 -12 2 6 2 18 0 25 -3 6 -5 1 -5 -13z"/>
<path d="M1481 134 c0 -11 3 -14 6 -6 3 7 2 16 -1 19 -3 4 -6 -2 -5 -13z"/>
<path d="M1659 523 c-14 -16 -30 -35 -36 -43 -15 -20 -65 -191 -58 -198 2 -3
16 21 31 54 14 32 43 94 64 137 40 81 40 95 -1 50z"/>
<path d="M350 1110 c0 -5 13 -10 29 -10 17 0 33 -5 36 -11 4 -6 14 -8 22 -5
22 9 69 -17 147 -79 38 -30 71 -53 73 -51 8 8 -18 47 -26 41 -5 -3 -31 13 -57
35 -27 22 -71 52 -98 65 -50 25 -126 34 -126 15z"/>
<path d="M582 1056 c42 -55 64 -70 34 -24 -9 14 -14 27 -10 30 5 6 -48 48 -60
48 -3 0 13 -25 36 -54z"/>
</g>
</svg>
